<svg xmlns="http://www.w3.org/2000/svg" width="1440" height="860" viewBox="0 0 1440 860" fill="none">
  <rect width="1440" height="860" fill="#071116"/>
  <rect x="40" y="34" width="1360" height="70" rx="2" stroke="#2A3C3C"/>
  <text x="72" y="79" fill="#F2EFE6" font-family="Georgia, serif" font-size="35">SpeakLoop</text>
  <text x="670" y="76" fill="#A7C984" font-family="Arial" font-size="18" font-weight="700">练习台</text><text x="770" y="76" fill="#8C9A94" font-family="Arial" font-size="18">资源与记录</text><text x="900" y="76" fill="#8C9A94" font-family="Arial" font-size="18">收藏夹</text>
  <rect x="40" y="134" width="890" height="455" rx="9" fill="#0D171D" stroke="#2A3C3C"/>
  <rect x="66" y="157" width="838" height="408" rx="6" fill="url(#g)"/>
  <circle cx="485" cy="359" r="47" fill="#0D171D" stroke="#A7C984" stroke-width="2"/><path d="M474 334L474 384L516 359Z" fill="#F2EFE6"/>
  <text x="94" y="197" fill="#A7C984" font-family="Arial" font-size="13" font-weight="700" letter-spacing="2">VIDEO INPUT</text>
  <rect x="40" y="615" width="890" height="66" rx="8" fill="#0D171D" stroke="#2A3C3C"/>
  <text x="67" y="656" fill="#F2EFE6" font-family="Arial" font-size="18">‹</text><rect x="104" y="629" width="118" height="39" rx="6" fill="#87B86C"/><text x="127" y="655" fill="#071116" font-family="Arial" font-size="15" font-weight="700">播放本句</text><rect x="235" y="629" width="118" height="39" rx="6" stroke="#42605B"/><text x="259" y="655" fill="#F2EFE6" font-family="Arial" font-size="15" font-weight="700">循环本句</text><text x="813" y="655" fill="#A7C984" font-family="Arial" font-size="14">速度 1×</text>
  <text x="40" y="726" fill="#A7C984" font-family="Arial" font-size="14" font-weight="700" letter-spacing="2">BILINGUAL TRANSCRIPT</text><text x="40" y="770" fill="#F2EFE6" font-family="Georgia, serif" font-size="32">双语字幕</text>
  <rect x="960" y="134" width="440" height="646" rx="9" fill="#0D171D" stroke="#2A3C3C"/>
  <text x="998" y="181" fill="#A7C984" font-family="Arial" font-size="14" font-weight="700" letter-spacing="2">SENTENCE PRACTICE</text><path d="M1354 165l7 15 16 2-12 11 3 16-14-8-14 8 3-16-12-11 16-2z" stroke="#A7C984" stroke-width="2"/>
  <line x1="998" y1="208" x2="1362" y2="208" stroke="#2A3C3C"/><text x="998" y="252" fill="#A7C984" font-family="Arial" font-size="15">00:00 — 00:05</text>
  <text x="998" y="313" fill="#F2EFE6" font-family="Georgia, serif" font-size="30">The human voice, it’s</text><text x="998" y="353" fill="#F2EFE6" font-family="Georgia, serif" font-size="30">the instrument we all play.</text>
  <text x="998" y="407" fill="#8C9A94" font-family="Arial" font-size="18">人类的声音，是我们都能演奏的乐器。</text>
  <line x1="998" y1="446" x2="1362" y2="446" stroke="#2A3C3C"/><circle cx="1180" cy="555" r="73" fill="#183127" stroke="#56656A" stroke-width="4"/><circle cx="1180" cy="555" r="13" fill="#A7C984"/><text x="1102" y="671" fill="#D1D8D2" font-family="Arial" font-size="16">点击录音，读完后再次点击停止</text>
  <rect x="998" y="710" width="364" height="46" rx="7" fill="#122025" stroke="#2A3C3C"/><text x="1020" y="739" fill="#D1D8D2" font-family="Arial" font-size="14">录音完成后可与原声进行 A/B 对比</text>
  <defs><linearGradient id="g" x1="70" y1="565" x2="840" y2="160" gradientUnits="userSpaceOnUse"><stop stop-color="#163B38"/><stop offset=".55" stop-color="#12242A"/><stop offset="1" stop-color="#050B0F"/></linearGradient></defs>
</svg>

