<svg xmlns="http://www.w3.org/2000/svg" width="1440" height="860" viewBox="0 0 1440 860" fill="none">
<defs><linearGradient id="b" x1="0" y1="0" x2="1440" y2="860" gradientUnits="userSpaceOnUse"><stop stop-color="#0B1A1F"/><stop offset="1" stop-color="#10261F"/></linearGradient><linearGradient id="v" x1="126" y1="325" x2="820" y2="620" gradientUnits="userSpaceOnUse"><stop stop-color="#4F8777"/><stop offset="1" stop-color="#071116"/></linearGradient></defs>
<rect width="1440" height="860" fill="url(#b)"/><circle cx="1280" cy="80" r="230" fill="#87B86C" fill-opacity=".08"/>
<text x="82" y="98" fill="#A7C984" font-family="Arial" font-size="15" font-weight="700" letter-spacing="3">SPEAKLOOP · LOCAL-FIRST PRACTICE</text><text x="80" y="172" fill="#F2EFE6" font-family="Georgia" font-size="58">把感兴趣的视频，变成你的英语练习场。</text><text x="82" y="216" fill="#AAB9B3" font-family="Arial" font-size="21">盲听、逐句理解、跟读回听与私人素材库，在一个安静的工作台里完成。</text>
<rect x="80" y="278" width="820" height="474" rx="18" fill="#0D171D" stroke="#38524F"/><rect x="104" y="301" width="772" height="47" rx="9" fill="#112027"/><circle cx="131" cy="324" r="6" fill="#87B86C"/><text x="153" y="330" fill="#F2EFE6" font-family="Arial" font-size="17" font-weight="700">Julian Treasure · The power of voice</text><text x="722" y="330" fill="#A7C984" font-family="Arial" font-size="15">练习台</text><rect x="104" y="368" width="772" height="232" rx="11" fill="url(#v)"/><text x="132" y="406" fill="#CDE6D0" font-family="Arial" font-size="13" font-weight="700" letter-spacing="2">NOW PLAYING · 00:17</text><circle cx="490" cy="483" r="48" fill="#0B161B" stroke="#A7C984" stroke-width="2"/><path d="M481 459v48l40-24z" fill="#F2EFE6"/><rect x="128" y="620" width="724" height="6" rx="3" fill="#29443F"/><rect x="128" y="620" width="298" height="6" rx="3" fill="#A7C984"/><circle cx="426" cy="623" r="8" fill="#F2EFE6"/><rect x="104" y="653" width="164" height="61" rx="10" fill="#87B86C"/><text x="139" y="690" fill="#071116" font-family="Arial" font-size="17" font-weight="700">播放本句</text><rect x="281" y="653" width="164" height="61" rx="10" fill="#122025" stroke="#42605B"/><text x="316" y="690" fill="#F2EFE6" font-family="Arial" font-size="17" font-weight="700">循环本句</text>
<rect x="934" y="278" width="426" height="474" rx="18" fill="#102027" stroke="#3C5752"/><text x="968" y="327" fill="#A7C984" font-family="Arial" font-size="14" font-weight="700" letter-spacing="2">CURRENT SENTENCE</text><text x="968" y="376" fill="#EDECE3" font-family="Georgia" font-size="26">The human voice is</text><text x="968" y="410" fill="#EDECE3" font-family="Georgia" font-size="26">the instrument we all play.</text><text x="968" y="454" fill="#94A39C" font-family="Arial" font-size="18">人类的声音，是我们都能演奏的乐器。</text><line x1="968" y1="492" x2="1325" y2="492" stroke="#3B5751"/><text x="968" y="534" fill="#A7C984" font-family="Arial" font-size="14" font-weight="700" letter-spacing="2">REPEAT · RECORD · COMPARE</text><circle cx="1147" cy="616" r="59" fill="#17362A" stroke="#58766D" stroke-width="4"/><circle cx="1147" cy="616" r="12" fill="#A7C984"/><text x="1007" y="711" fill="#D4DDD7" font-family="Arial" font-size="17">录下这一句，回听自己的节奏。</text>
<g transform="translate(80 780)"><rect width="220" height="42" rx="21" fill="#152A28"/><circle cx="26" cy="21" r="7" fill="#A7C984"/><text x="48" y="27" fill="#DCE7DF" font-family="Arial" font-size="15" font-weight="700">听写后再揭晓</text></g><g transform="translate(320 780)"><rect width="212" height="42" rx="21" fill="#152A28"/><circle cx="26" cy="21" r="7" fill="#A7C984"/><text x="48" y="27" fill="#DCE7DF" font-family="Arial" font-size="15" font-weight="700">逐句循环跟读</text></g><g transform="translate(552 780)"><rect width="212" height="42" rx="21" fill="#152A28"/><circle cx="26" cy="21" r="7" fill="#A7C984"/><text x="48" y="27" fill="#DCE7DF" font-family="Arial" font-size="15" font-weight="700">素材完全本地化</text></g></svg>